<?xml version="1.0" standalone="no"?>
<!DOCTYPE svg PUBLIC "-//W3C//DTD SVG 20010904//EN"
 "http://www.w3.org/TR/2001/REC-SVG-20010904/DTD/svg10.dtd">
<svg version="1.0" xmlns="http://www.w3.org/2000/svg"
 width="280.000000pt" height="98.000000pt" viewBox="0 0 280.000000 98.000000"
 preserveAspectRatio="xMidYMid meet">
<metadata>
Created by potrace 1.10, written by Peter Selinger 2001-2011
</metadata>
<g transform="translate(0.000000,98.000000) scale(0.100000,-0.100000)"
fill="#fff" stroke="none">
<path d="M315 832 c-80 -24 -118 -45 -172 -95 -56 -51 -73 -84 -73 -139 0 -86
44 -114 260 -163 218 -50 247 -71 155 -115 -124 -60 -314 -33 -275 40 13 23 8
36 -9 25 -26 -15 -7 -95 28 -122 25 -20 134 -15 202 7 83 28 119 56 119 92 0
42 -40 61 -214 104 -167 40 -195 51 -225 90 -33 42 -27 78 20 129 62 67 173
119 263 123 39 2 83 -1 99 -7 33 -13 36 -44 5 -65 -16 -12 -18 -16 -7 -16 23
0 49 33 49 62 0 14 -9 33 -21 44 -29 26 -127 29 -204 6z"/>
<path d="M2417 810 c-79 -63 -143 -285 -116 -408 12 -58 35 -70 45 -24 17 78
26 102 46 132 29 42 59 62 76 51 8 -5 20 -41 28 -81 15 -82 26 -100 61 -100
27 0 93 58 93 81 0 7 -7 3 -16 -9 -8 -12 -29 -29 -47 -38 -29 -16 -32 -16 -48
5 -9 11 -20 45 -24 73 -9 66 -30 108 -54 108 -40 0 -102 -86 -116 -163 -10
-54 -25 -56 -25 -3 0 118 58 297 109 337 28 22 39 12 21 -20 -6 -13 -7 -21 -1
-21 13 0 33 64 25 83 -8 22 -26 21 -57 -3z"/>
<path d="M882 653 c-16 -31 -22 -72 -13 -78 14 -8 41 36 41 67 0 32 -15 37
-28 11z"/>
<path d="M1882 569 c-84 -16 -132 -74 -115 -140 7 -27 15 -35 37 -37 33 -4 87
42 107 91 l13 31 13 -30 c21 -51 17 -58 -58 -94 -88 -42 -163 -112 -179 -168
-37 -122 131 -203 226 -108 41 41 54 89 54 207 l0 96 56 19 c30 10 51 20 45
22 -9 3 -59 -9 -91 -22 -13 -5 -18 7 -29 69 -7 45 -17 75 -24 74 -7 -1 -31 -5
-55 -10z m28 -59 c0 -16 -76 -90 -93 -90 -41 0 -30 52 16 81 34 20 77 26 77 9z
m46 -137 c13 -49 -13 -192 -40 -228 -42 -55 -137 -65 -187 -19 -41 37 -14 125
55 177 40 31 148 97 158 97 4 0 11 -12 14 -27z"/>
<path d="M859 534 c-21 -25 -17 -129 6 -154 22 -24 46 -25 88 -4 37 19 87 63
87 78 0 5 -12 -2 -27 -17 -16 -14 -44 -33 -64 -41 -32 -13 -38 -13 -57 0 -23
16 -31 77 -12 89 12 8 13 65 1 65 -5 0 -15 -7 -22 -16z"/>
<path d="M1345 536 c-44 -19 -95 -81 -95 -115 0 -40 22 -54 82 -52 52 1 167
47 213 86 25 20 18 18 -69 -25 -75 -36 -151 -49 -185 -31 -30 16 -27 39 4 33
68 -13 149 36 143 86 -2 22 -9 27 -33 29 -16 2 -44 -3 -60 -11z m59 -47 c-23
-25 -91 -46 -105 -32 -21 21 63 65 104 55 17 -4 17 -6 1 -23z"/>
</g>
</svg>
